<?xml version="1.0" encoding="iso-8859-1"?>
<!-- Uploaded to: SVG Repo, www.svgrepo.com, Generator: SVG Repo Mixer Tools -->
<!DOCTYPE svg PUBLIC "-//W3C//DTD SVG 1.1//EN" "http://www.w3.org/Graphics/SVG/1.1/DTD/svg11.dtd">
<svg fill="#000000" version="1.1" id="Capa_1" xmlns="http://www.w3.org/2000/svg" xmlns:xlink="http://www.w3.org/1999/xlink" 
	 width="800px" height="800px" viewBox="0 0 96.66 96.66" xml:space="preserve"
	>
<g>
	<g>
		<circle cx="55.194" cy="13.431" r="13.431"/>
		<path d="M58.368,27.736l11.753,0.459c0.069,0.003,0.139,0.004,0.207,0.004c1.979,0,3.698-1.121,4.58-2.769
			c0,0,1.732-3.227-0.603-5.785h-2.331l1.207-1.001c-0.769-0.506-1.668-0.832-2.653-0.87l-1.237-0.048
			C67.729,22.807,63.48,26.625,58.368,27.736z"/>
		<path d="M72.244,32.583c-0.118,0.008-8.641,0.453-15.758-2.934c0.116-0.557,0.165-1.102,0.178-1.639
			c-0.447,0.042-0.898,0.067-1.354,0.067c-0.001,0,0,0-0.001,0c-1.03,0-2.067-0.11-3.082-0.328
			c-5.736-1.229-9.953-5.688-11.19-11.06c-1.033,0.235-1.567,0.494-2.486,0.848c-2.926,1.249-5.434,3.548-6.173,7.001l-0.881,3.594
			c1.988,0.669,3.647,1.347,3.647,1.347l-2.112,1.043l-0.206,1.131l-2.112-0.328l-3.291,13.42c-0.616,2.875,0.188,5.522,1.784,7.676
			l-0.345,5.267c2.24,0.338,4.283,0.625,4.283,0.625l-4.574,3.83h4.074l-1.667,2.17l-2.622,1.103l-0.253,3.861l1.208,0.87
			l-1.299,0.509l-0.119,1.815l-8.174,14.25c-1.823,3.178-0.725,7.234,2.455,9.059c1.041,0.597,2.176,0.881,3.296,0.881
			c2.299,0,4.536-1.197,5.762-3.336l8.94-15.584c0.503-0.877,0.799-1.857,0.866-2.868l0.784-11.974l8.084,12.775l6.151,15.815
			c1.021,2.626,3.528,4.233,6.187,4.233c0.799,0,1.613-0.146,2.404-0.453c3.416-1.33,5.108-5.176,3.779-8.592l-6.386-16.416
			c-0.154-0.397-0.348-0.781-0.576-1.143l-0.244-0.386c-1.614,1.243-3.579,2.243-3.579,2.243l0.727-3c0,0-5.56,0-6.06,0
			c-0.407,0,3.857-3.418,5.463-4.693l-7.045-11.132c0.344-0.685,0.62-1.427,0.795-2.245l0.228-0.929l-8.046,3.351l6.939-5.85
			l-6.833-2.833l9.389-0.573l0.775-3.159c2.853,1.147,5.718,1.879,8.332,2.346c0.729-2.484,1.504-5.282,1.504-5.282l0.805,5.64
			c0.062,0.008,0.124,0.017,0.185,0.025l2.155-2.331l-0.525,2.509c1.828,0.172,3.391,0.222,4.528,0.222
			c1.144,0,1.864-0.046,2.013-0.056c2.873-0.2,5.04-2.691,4.84-5.564C77.609,34.549,75.107,32.393,72.244,32.583z"/>
	</g>
</g>
</svg>