<?xml version="1.0" encoding="iso-8859-1"?>
<!-- Uploaded to: SVG Repo, www.svgrepo.com, Generator: SVG Repo Mixer Tools -->
<svg height="800px" width="800px" version="1.1" id="Layer_1" xmlns="http://www.w3.org/2000/svg" xmlns:xlink="http://www.w3.org/1999/xlink" 
	 viewBox="0 0 512 512" xml:space="preserve">
<g>
	<path style="fill:#B27214;" d="M396.322,399.39c9.712,0,17.577,7.877,17.577,17.577c0,9.712-7.865,17.577-17.577,17.577
		s-17.577-7.865-17.577-17.577C378.745,407.267,386.61,399.39,396.322,399.39z"/>
	<path style="fill:#B27214;" d="M120.159,352.177c11.678,0,21.152,9.474,21.152,21.152c0,11.678-9.474,21.152-21.152,21.152
		s-21.152-9.474-21.152-21.152C99.007,361.651,108.481,352.177,120.159,352.177z"/>
	<path style="fill:#B27214;" d="M373.228,488.68c0,5.184-1.275,10.081-3.527,14.383H135.638c-0.977-3.289-1.501-6.792-1.501-10.391
		c0-20.484,16.6-37.072,37.084-37.072c3.718,0,7.305,0.548,10.689,1.561c11.047,3.325,19.924,11.666,23.988,22.379
		c4.624-8.151,13.382-13.668,23.44-13.668c8.079,0,15.313,3.563,20.258,9.188c6.268-11.595,18.53-19.46,32.639-19.46
		c13.775,0,25.775,7.507,32.174,18.673c3.515-6.709,9.378-11.988,16.516-14.717c3.444-1.323,7.198-2.05,11.118-2.05
		C359.262,457.506,373.228,471.46,373.228,488.68z"/>
</g>
<path style="fill:#9AD14B;" d="M423.992,150.789c0,4.361-1.239,8.759-3.801,12.619l-49.31,74.537
	c-16.421,24.822-28.683,52.039-36.429,80.579c-1.084,4.016-2.634,87.729-3.527,141.019v0.012
	c-7.138,2.729-13.001,8.008-16.516,14.717c-6.399-11.166-18.399-18.673-32.174-18.673c-14.109,0-26.371,7.865-32.639,19.46
	c-4.945-5.625-12.179-9.188-20.258-9.188c-10.057,0-18.816,5.517-23.44,13.668c-4.064-10.713-12.941-19.054-23.988-22.379
	l-2.216-144.928c-1.394-11.547-7.698-21.95-17.362-28.421c-6.995-4.671-12.786-11.094-16.838-18.673
	c-12.214-22.868-30.256-42.47-52.683-56.627l-3.265-2.062c-13.18-8.318-16.838-25.906-8.044-38.788l0.417-0.62
	c9.08-13.334,27.42-16.111,39.944-6.173c11.547,9.164,25.501,20.246,37.239,29.529c1.037,0.822,2.121,1.454,3.241,1.919
	c7.233,2.979,15.599-1.358,17.517-8.806c0.381-1.49,0.512-3.098,0.322-4.802L165.358,46.783
	c-1.501-13.311,7.436-25.573,20.58-28.206c1.704-0.334,3.42-0.5,5.076-0.5c12.477,0,23.523,9.08,25.501,21.89l14.276,92.865
	c0.465,3.027,4.886,2.8,5.064-0.25l5.958-106.485c0.846-15.074,13.609-26.681,28.695-26.073c14.907,0.608,26.55,12.882,26.55,27.598
	c0,0.5-0.024,1.013-0.048,1.537l-5.434,98.608c-0.298,5.374,7.269,6.864,9.021,1.764l22.26-65.016
	c4.767-13.93,20.389-20.878,33.914-15.074c9.533,4.087,15.348,13.394,15.348,23.261c0,2.634-0.405,5.291-1.263,7.901l-27.992,85.393
	c-1.978,6.018,5.732,10.379,9.879,5.613l31.078-35.821c8.377-9.652,23.046-10.582,32.568-2.038
	C421.394,138.23,423.992,144.474,423.992,150.789z"/>
<path style="fill:#90BC42;" d="M214.084,457.161c0,0-3.611,14.324-8.187,22.379c-4.064-10.713-12.941-19.054-23.988-22.379
	l-2.216-144.928c-1.394-11.547-7.698-21.95-17.362-28.421c-6.995-4.671-12.786-11.094-16.838-18.673
	c-12.214-22.868-30.256-42.47-52.683-56.627l-3.265-2.062c-13.18-8.318-16.838-25.906-8.044-38.788l0.417-0.62
	c8.842-12.977,26.454-15.956,38.931-6.935c-2.562,1.835-4.862,4.159-6.757,6.935l-0.417,0.62
	c-8.794,12.882-5.136,30.47,8.044,38.788l3.265,2.062c22.427,14.157,40.468,33.759,52.683,56.627
	c4.052,7.579,9.843,14.002,16.838,18.673c9.664,6.471,15.968,16.874,17.362,28.421L214.084,457.161z"/>
<path style="fill:#995C0D;" d="M479.177,512H32.823c-4.936,0-8.937-4.002-8.937-8.937c0-4.936,4.002-8.937,8.937-8.937h446.354
	c4.936,0,8.937,4.002,8.937,8.937C488.114,507.999,484.113,512,479.177,512z"/>
<path style="fill:#90BC42;" d="M273.654,275.4c-4.063-78.041-80.269-66.696-111.311-83.081c7.233,2.979,15.599-1.358,17.517-8.806
	c12.548,2.371,29.934,6.995,52.313,15.908C284.165,220.131,273.654,275.4,273.654,275.4z"/>
<g>
	<circle style="fill:#995C0D;" cx="427.597" cy="448.248" r="8.937"/>
	<circle style="fill:#995C0D;" cx="366.823" cy="310.018" r="8.937"/>
	<circle style="fill:#995C0D;" cx="89.176" cy="425.607" r="8.937"/>
	<circle style="fill:#995C0D;" cx="105.853" cy="277.844" r="8.937"/>
</g>
</svg>